<?xml version="1.0" encoding="utf-8"?>
<!-- Generator: Adobe Illustrator 18.0.0, SVG Export Plug-In . SVG Version: 6.00 Build 0)  -->
<!DOCTYPE svg PUBLIC "-//W3C//DTD SVG 1.1//EN" "http://www.w3.org/Graphics/SVG/1.1/DTD/svg11.dtd">
<svg version="1.1" id="Camada_1" xmlns="http://www.w3.org/2000/svg" xmlns:xlink="http://www.w3.org/1999/xlink" x="0px" y="0px"
	 viewBox="0.8 5.9 19.2 16.1" enable-background="new 0.8 5.9 19.2 16.1" xml:space="preserve">
<linearGradient id="SVGID_1_" gradientUnits="userSpaceOnUse" x1="10.63" y1="21" x2="10.63" y2="10" gradientTransform="matrix(1 0 0 -1 0 32)">
	<stop  offset="0" style="stop-color:#0014A8"/>
	<stop  offset="1" style="stop-color:#000842"/>
</linearGradient>
<path fill="url(#SVGID_1_)" d="M15.5,10.7c1.4,0,2.5,0.4,3.3,1.3c0.8,0.8,1.2,2,1.2,3.5V22h-3.4v-6.1c0-0.7-0.2-1.3-0.6-1.7
	c-0.4-0.4-0.9-0.6-1.6-0.6c-0.7,0-1.2,0.2-1.6,0.6c-0.4,0.4-0.6,0.9-0.6,1.7V22H8.9v-6.1c0-0.7-0.2-1.3-0.6-1.7
	c-0.4-0.4-0.9-0.6-1.6-0.6s-1.2,0.2-1.6,0.6c-0.4,0.4-0.6,0.9-0.6,1.7V22H1.2V10.8h3.4v1.4C5,11.8,5.5,11.4,6,11.1
	c0.6-0.3,1.2-0.4,1.9-0.4c0.8,0,1.6,0.2,2.2,0.5c0.7,0.4,1.2,0.9,1.6,1.5c0.4-0.6,0.9-1.1,1.6-1.5C14,10.9,14.7,10.7,15.5,10.7z"/>
<linearGradient id="SVGID_2_" gradientUnits="userSpaceOnUse" x1="2.95" y1="21" x2="2.95" y2="10" gradientTransform="matrix(1 0 0 -1 0 32)">
	<stop  offset="0" style="stop-color:#0089ED"/>
	<stop  offset="1" style="stop-color:#004E87"/>
</linearGradient>
<path fill="url(#SVGID_2_)" d="M3,9.7c-0.6,0-1.1-0.2-1.5-0.5C1.1,8.8,0.9,8.4,0.9,7.8c0-0.5,0.2-1,0.6-1.3C1.9,6.2,2.4,6,3,6
	C3.5,6,4,6.2,4.4,6.5C4.8,6.9,5,7.3,5,7.8c0,0.5-0.2,1-0.6,1.3C4,9.5,3.5,9.7,3,9.7z M4.7,10.8V22H1.2V10.8H4.7z"/>
</svg>
